<?xml version="1.0" encoding="utf-8"?>
<!-- Generator: Adobe Illustrator 16.0.0, SVG Export Plug-In . SVG Version: 6.00 Build 0)  -->
<!DOCTYPE svg PUBLIC "-//W3C//DTD SVG 1.1//EN" "http://www.w3.org/Graphics/SVG/1.1/DTD/svg11.dtd" [
	<!ENTITY ns_extend "http://ns.adobe.com/Extensibility/1.0/">
	<!ENTITY ns_ai "http://ns.adobe.com/AdobeIllustrator/10.0/">
	<!ENTITY ns_graphs "http://ns.adobe.com/Graphs/1.0/">
	<!ENTITY ns_vars "http://ns.adobe.com/Variables/1.0/">
	<!ENTITY ns_imrep "http://ns.adobe.com/ImageReplacement/1.0/">
	<!ENTITY ns_sfw "http://ns.adobe.com/SaveForWeb/1.0/">
	<!ENTITY ns_custom "http://ns.adobe.com/GenericCustomNamespace/1.0/">
	<!ENTITY ns_adobe_xpath "http://ns.adobe.com/XPath/1.0/">
]>
<svg version="1.1" id="Layer_1" xmlns:x="&ns_extend;" xmlns:i="&ns_ai;" xmlns:graph="&ns_graphs;"
	 xmlns="http://www.w3.org/2000/svg" xmlns:xlink="http://www.w3.org/1999/xlink" x="0px" y="0px" width="1694px" height="206.99px"
	 viewBox="0 0 1694 206.99" enable-background="new 0 0 1694 206.99" xml:space="preserve">
<metadata>
	<sfw  xmlns="&ns_sfw;">
		<slices></slices>
		<sliceSourceBounds  width="1694.834" height="176.886" x="-406.82" y="-483.328" bottomLeftOrigin="true"></sliceSourceBounds>
	</sfw>
</metadata>
<g>
	<g>
		<path fill="none" stroke="#989898" stroke-miterlimit="10" d="M0,120.583c0,0,1.08-1.905,3.241-5.043"/>
		<path fill="none" stroke="#989898" stroke-miterlimit="10" stroke-dasharray="12.0604,12.0604" d="M10.537,105.943
			c26.835-32.265,104.993-97.493,235.158,22.96c0,0,120.188,94,239.374-31.32c0,0,141.221-190.318,236.37,6.341
			c0,0,60.094,144.341,246.385,0c0,0,130.776-138.421,195.374,55.068c0,0,43.565,100.495,168.254-56.156
			c0,0,131.332-173.332,248.92,7.408c0,0,46.528,86.857,106.036,19.675"/>
		<path fill="none" stroke="#989898" stroke-miterlimit="10" d="M1690.309,125.313c1.226-1.51,2.456-3.086,3.691-4.73"/>
	</g>
</g>
</svg>
